<?xml version="1.0" encoding="UTF-8"?>
<svg width="26px" height="57px" viewBox="0 0 26 57" version="1.1" xmlns="http://www.w3.org/2000/svg" xmlns:xlink="http://www.w3.org/1999/xlink">
    <!-- Generator: Sketch 48.2 (47327) - http://www.bohemiancoding.com/sketch -->
    <title>facebook</title>
    <desc>Created with Sketch.</desc>
    <defs></defs>
    <g id="Artboard" stroke="none" stroke-width="1" fill="none" fill-rule="evenodd" transform="translate(-35.000000, -20.000000)">
        <g id="Group" transform="translate(16.000000, 18.000000)" fill="#FFFFFF" fill-rule="nonzero">
            <g id="facebook" transform="translate(19.000000, 2.000000)">
                <path d="M26,18.4568619 L17.1453136,18.4568619 L17.1453136,12.5409439 C17.1453136,10.31923 18.5907876,9.80126268 19.6088738,9.80126268 C20.6246436,9.80126268 25.8575374,9.80126268 25.8575374,9.80126268 L25.8575374,0.0342165183 L17.251871,0 C7.69877049,0 5.52476835,7.28457876 5.52476835,11.9462844 L5.52476835,18.4568619 L0,18.4568619 L0,28.5212378 L5.52476835,28.5212378 C5.52476835,41.4373836 5.52476835,57 5.52476835,57 L17.1453136,57 C17.1453136,57 17.1453136,41.2839992 17.1453136,28.5212378 L24.9865467,28.5212378 L26,18.4568619 Z" id="Shape"></path>
            </g>
        </g>
    </g>
</svg>